<mxfile host="app.diagrams.net" modified="2024-05-22T22:37:12.046Z" agent="Mozilla/5.0 (Macintosh; Intel Mac OS X 10_15_7) AppleWebKit/537.36 (KHTML, like Gecko) Chrome/124.0.0.0 Safari/537.36" etag="aw2CpK-FBTreYKU2iYuG" version="24.4.6" type="github">
  <diagram name="Страница — 1" id="uoGTpiOCzuA5TLY1G3M9">
    <mxGraphModel dx="830" dy="461" grid="1" gridSize="10" guides="1" tooltips="1" connect="1" arrows="1" fold="1" page="1" pageScale="1" pageWidth="827" pageHeight="1169" math="0" shadow="0">
      <root>
        <mxCell id="0" />
        <mxCell id="1" parent="0" />
        <mxCell id="zPpbRW_l3qORdhPTsTCR-56" style="edgeStyle=orthogonalEdgeStyle;rounded=0;orthogonalLoop=1;jettySize=auto;html=1;" edge="1" parent="1" source="zPpbRW_l3qORdhPTsTCR-14">
          <mxGeometry relative="1" as="geometry">
            <mxPoint x="280" y="290" as="targetPoint" />
            <Array as="points">
              <mxPoint x="33" y="240" />
              <mxPoint x="33" y="240" />
            </Array>
          </mxGeometry>
        </mxCell>
        <mxCell id="zPpbRW_l3qORdhPTsTCR-14" value="Actor" style="shape=umlActor;verticalLabelPosition=bottom;verticalAlign=top;html=1;outlineConnect=0;" vertex="1" parent="1">
          <mxGeometry x="18" y="24" width="30" height="60" as="geometry" />
        </mxCell>
        <mxCell id="zPpbRW_l3qORdhPTsTCR-16" value="" style="endArrow=classic;html=1;rounded=0;" edge="1" parent="1">
          <mxGeometry width="50" height="50" relative="1" as="geometry">
            <mxPoint x="68" y="63" as="sourcePoint" />
            <mxPoint x="248" y="63" as="targetPoint" />
          </mxGeometry>
        </mxCell>
        <mxCell id="zPpbRW_l3qORdhPTsTCR-17" value="Запрос на авторизацию" style="text;html=1;align=center;verticalAlign=middle;whiteSpace=wrap;rounded=0;" vertex="1" parent="1">
          <mxGeometry x="78" y="34" width="160" height="30" as="geometry" />
        </mxCell>
        <mxCell id="zPpbRW_l3qORdhPTsTCR-19" value="Номер телефона, get" style="text;html=1;align=center;verticalAlign=middle;whiteSpace=wrap;rounded=0;" vertex="1" parent="1">
          <mxGeometry x="78" y="61" width="160" height="30" as="geometry" />
        </mxCell>
        <mxCell id="zPpbRW_l3qORdhPTsTCR-22" value="user" style="swimlane;whiteSpace=wrap;html=1;startSize=23;" vertex="1" parent="1">
          <mxGeometry x="248" y="3" width="322" height="537" as="geometry" />
        </mxCell>
        <mxCell id="zPpbRW_l3qORdhPTsTCR-41" value="Проверим существует ли пользователь" style="rounded=0;whiteSpace=wrap;html=1;" vertex="1" parent="zPpbRW_l3qORdhPTsTCR-22">
          <mxGeometry x="12" y="37" width="120" height="53" as="geometry" />
        </mxCell>
        <mxCell id="zPpbRW_l3qORdhPTsTCR-44" value="Нет" style="text;html=1;align=center;verticalAlign=middle;whiteSpace=wrap;rounded=0;" vertex="1" parent="zPpbRW_l3qORdhPTsTCR-22">
          <mxGeometry x="131" y="37" width="60" height="30" as="geometry" />
        </mxCell>
        <mxCell id="zPpbRW_l3qORdhPTsTCR-45" value="" style="endArrow=classic;html=1;rounded=0;" edge="1" parent="zPpbRW_l3qORdhPTsTCR-22">
          <mxGeometry width="50" height="50" relative="1" as="geometry">
            <mxPoint x="131" y="70.5" as="sourcePoint" />
            <mxPoint x="191" y="70.5" as="targetPoint" />
          </mxGeometry>
        </mxCell>
        <mxCell id="zPpbRW_l3qORdhPTsTCR-53" style="edgeStyle=orthogonalEdgeStyle;rounded=0;orthogonalLoop=1;jettySize=auto;html=1;exitX=0.5;exitY=1;exitDx=0;exitDy=0;entryX=1;entryY=0.5;entryDx=0;entryDy=0;" edge="1" parent="zPpbRW_l3qORdhPTsTCR-22" source="zPpbRW_l3qORdhPTsTCR-46" target="zPpbRW_l3qORdhPTsTCR-51">
          <mxGeometry relative="1" as="geometry" />
        </mxCell>
        <mxCell id="zPpbRW_l3qORdhPTsTCR-46" value="Создаем пользователя в БД" style="rounded=0;whiteSpace=wrap;html=1;" vertex="1" parent="zPpbRW_l3qORdhPTsTCR-22">
          <mxGeometry x="191" y="37" width="120" height="53" as="geometry" />
        </mxCell>
        <mxCell id="zPpbRW_l3qORdhPTsTCR-47" value="Да" style="text;html=1;align=center;verticalAlign=middle;whiteSpace=wrap;rounded=0;" vertex="1" parent="zPpbRW_l3qORdhPTsTCR-22">
          <mxGeometry x="22" y="107" width="60" height="30" as="geometry" />
        </mxCell>
        <mxCell id="zPpbRW_l3qORdhPTsTCR-48" value="" style="endArrow=classic;html=1;rounded=0;exitX=0.5;exitY=1;exitDx=0;exitDy=0;" edge="1" parent="zPpbRW_l3qORdhPTsTCR-22" source="zPpbRW_l3qORdhPTsTCR-41">
          <mxGeometry width="50" height="50" relative="1" as="geometry">
            <mxPoint x="32" y="180.5" as="sourcePoint" />
            <mxPoint x="72" y="157" as="targetPoint" />
          </mxGeometry>
        </mxCell>
        <mxCell id="zPpbRW_l3qORdhPTsTCR-54" style="edgeStyle=orthogonalEdgeStyle;rounded=0;orthogonalLoop=1;jettySize=auto;html=1;" edge="1" parent="zPpbRW_l3qORdhPTsTCR-22" source="zPpbRW_l3qORdhPTsTCR-51">
          <mxGeometry relative="1" as="geometry">
            <mxPoint x="-188" y="117" as="targetPoint" />
          </mxGeometry>
        </mxCell>
        <mxCell id="zPpbRW_l3qORdhPTsTCR-51" value="генерируем, сохраняем в БД или кэш и отправляем код для проверки" style="rounded=0;whiteSpace=wrap;html=1;" vertex="1" parent="zPpbRW_l3qORdhPTsTCR-22">
          <mxGeometry x="22" y="157" width="120" height="53" as="geometry" />
        </mxCell>
        <mxCell id="zPpbRW_l3qORdhPTsTCR-62" style="edgeStyle=orthogonalEdgeStyle;rounded=0;orthogonalLoop=1;jettySize=auto;html=1;entryX=1;entryY=0.75;entryDx=0;entryDy=0;" edge="1" parent="zPpbRW_l3qORdhPTsTCR-22" source="zPpbRW_l3qORdhPTsTCR-58" target="zPpbRW_l3qORdhPTsTCR-51">
          <mxGeometry relative="1" as="geometry" />
        </mxCell>
        <mxCell id="zPpbRW_l3qORdhPTsTCR-58" value="верен код?" style="rounded=0;whiteSpace=wrap;html=1;" vertex="1" parent="zPpbRW_l3qORdhPTsTCR-22">
          <mxGeometry x="32" y="257" width="120" height="53" as="geometry" />
        </mxCell>
        <mxCell id="zPpbRW_l3qORdhPTsTCR-63" value="Нет" style="text;html=1;align=center;verticalAlign=middle;whiteSpace=wrap;rounded=0;" vertex="1" parent="zPpbRW_l3qORdhPTsTCR-22">
          <mxGeometry x="102" y="210" width="60" height="30" as="geometry" />
        </mxCell>
        <mxCell id="zPpbRW_l3qORdhPTsTCR-64" style="edgeStyle=orthogonalEdgeStyle;rounded=0;orthogonalLoop=1;jettySize=auto;html=1;" edge="1" parent="zPpbRW_l3qORdhPTsTCR-22" source="zPpbRW_l3qORdhPTsTCR-58">
          <mxGeometry relative="1" as="geometry">
            <mxPoint x="92" y="362" as="targetPoint" />
          </mxGeometry>
        </mxCell>
        <mxCell id="zPpbRW_l3qORdhPTsTCR-66" value="да" style="text;html=1;align=center;verticalAlign=middle;whiteSpace=wrap;rounded=0;" vertex="1" parent="zPpbRW_l3qORdhPTsTCR-22">
          <mxGeometry x="32" y="317" width="60" height="30" as="geometry" />
        </mxCell>
        <mxCell id="zPpbRW_l3qORdhPTsTCR-68" style="edgeStyle=orthogonalEdgeStyle;rounded=0;orthogonalLoop=1;jettySize=auto;html=1;" edge="1" parent="zPpbRW_l3qORdhPTsTCR-22" source="zPpbRW_l3qORdhPTsTCR-67">
          <mxGeometry relative="1" as="geometry">
            <mxPoint x="-228" y="105.26086956521739" as="targetPoint" />
          </mxGeometry>
        </mxCell>
        <mxCell id="zPpbRW_l3qORdhPTsTCR-67" value="генерируем, сохраняем в БД или кэш и отправляем токен пользователю" style="rounded=0;whiteSpace=wrap;html=1;" vertex="1" parent="zPpbRW_l3qORdhPTsTCR-22">
          <mxGeometry x="32" y="367" width="120" height="73" as="geometry" />
        </mxCell>
        <mxCell id="zPpbRW_l3qORdhPTsTCR-23" value="transpotr_service" style="swimlane;whiteSpace=wrap;html=1;" vertex="1" parent="1">
          <mxGeometry x="238" y="610" width="200" height="200" as="geometry" />
        </mxCell>
        <mxCell id="zPpbRW_l3qORdhPTsTCR-52" value="SMS" style="rounded=0;whiteSpace=wrap;html=1;" vertex="1" parent="zPpbRW_l3qORdhPTsTCR-23">
          <mxGeometry x="22" y="50" width="120" height="60" as="geometry" />
        </mxCell>
        <mxCell id="zPpbRW_l3qORdhPTsTCR-24" value="db_service" style="swimlane;whiteSpace=wrap;html=1;" vertex="1" parent="1">
          <mxGeometry x="1090" y="250" width="200" height="670" as="geometry" />
        </mxCell>
        <mxCell id="zPpbRW_l3qORdhPTsTCR-25" value="users" style="swimlane;fontStyle=0;childLayout=stackLayout;horizontal=1;startSize=26;fillColor=none;horizontalStack=0;resizeParent=1;resizeParentMax=0;resizeLast=0;collapsible=1;marginBottom=0;whiteSpace=wrap;html=1;" vertex="1" parent="zPpbRW_l3qORdhPTsTCR-24">
          <mxGeometry x="20" y="40" width="140" height="130" as="geometry" />
        </mxCell>
        <mxCell id="zPpbRW_l3qORdhPTsTCR-28" value="+ field: last_login" style="text;strokeColor=none;fillColor=none;align=left;verticalAlign=top;spacingLeft=4;spacingRight=4;overflow=hidden;rotatable=0;points=[[0,0.5],[1,0.5]];portConstraint=eastwest;whiteSpace=wrap;html=1;" vertex="1" parent="zPpbRW_l3qORdhPTsTCR-25">
          <mxGeometry y="26" width="140" height="26" as="geometry" />
        </mxCell>
        <mxCell id="zPpbRW_l3qORdhPTsTCR-26" value="+ field: name" style="text;strokeColor=none;fillColor=none;align=left;verticalAlign=top;spacingLeft=4;spacingRight=4;overflow=hidden;rotatable=0;points=[[0,0.5],[1,0.5]];portConstraint=eastwest;whiteSpace=wrap;html=1;" vertex="1" parent="zPpbRW_l3qORdhPTsTCR-25">
          <mxGeometry y="52" width="140" height="26" as="geometry" />
        </mxCell>
        <mxCell id="zPpbRW_l3qORdhPTsTCR-35" value="+ field: tocken" style="text;strokeColor=none;fillColor=none;align=left;verticalAlign=top;spacingLeft=4;spacingRight=4;overflow=hidden;rotatable=0;points=[[0,0.5],[1,0.5]];portConstraint=eastwest;whiteSpace=wrap;html=1;" vertex="1" parent="zPpbRW_l3qORdhPTsTCR-25">
          <mxGeometry y="78" width="140" height="26" as="geometry" />
        </mxCell>
        <mxCell id="zPpbRW_l3qORdhPTsTCR-27" value="+ field: phone" style="text;strokeColor=none;fillColor=none;align=left;verticalAlign=top;spacingLeft=4;spacingRight=4;overflow=hidden;rotatable=0;points=[[0,0.5],[1,0.5]];portConstraint=eastwest;whiteSpace=wrap;html=1;" vertex="1" parent="zPpbRW_l3qORdhPTsTCR-25">
          <mxGeometry y="104" width="140" height="26" as="geometry" />
        </mxCell>
        <mxCell id="zPpbRW_l3qORdhPTsTCR-36" value="otp" style="swimlane;fontStyle=0;childLayout=stackLayout;horizontal=1;startSize=26;fillColor=none;horizontalStack=0;resizeParent=1;resizeParentMax=0;resizeLast=0;collapsible=1;marginBottom=0;whiteSpace=wrap;html=1;" vertex="1" parent="zPpbRW_l3qORdhPTsTCR-24">
          <mxGeometry x="20" y="190" width="140" height="104" as="geometry" />
        </mxCell>
        <mxCell id="zPpbRW_l3qORdhPTsTCR-37" value="+ field: user" style="text;strokeColor=none;fillColor=none;align=left;verticalAlign=top;spacingLeft=4;spacingRight=4;overflow=hidden;rotatable=0;points=[[0,0.5],[1,0.5]];portConstraint=eastwest;whiteSpace=wrap;html=1;" vertex="1" parent="zPpbRW_l3qORdhPTsTCR-36">
          <mxGeometry y="26" width="140" height="26" as="geometry" />
        </mxCell>
        <mxCell id="zPpbRW_l3qORdhPTsTCR-38" value="+ field: otp" style="text;strokeColor=none;fillColor=none;align=left;verticalAlign=top;spacingLeft=4;spacingRight=4;overflow=hidden;rotatable=0;points=[[0,0.5],[1,0.5]];portConstraint=eastwest;whiteSpace=wrap;html=1;" vertex="1" parent="zPpbRW_l3qORdhPTsTCR-36">
          <mxGeometry y="52" width="140" height="26" as="geometry" />
        </mxCell>
        <mxCell id="zPpbRW_l3qORdhPTsTCR-39" value="+ field: timestamp" style="text;strokeColor=none;fillColor=none;align=left;verticalAlign=top;spacingLeft=4;spacingRight=4;overflow=hidden;rotatable=0;points=[[0,0.5],[1,0.5]];portConstraint=eastwest;whiteSpace=wrap;html=1;" vertex="1" parent="zPpbRW_l3qORdhPTsTCR-36">
          <mxGeometry y="78" width="140" height="26" as="geometry" />
        </mxCell>
        <mxCell id="zPpbRW_l3qORdhPTsTCR-55" value="OTP" style="text;html=1;align=center;verticalAlign=middle;whiteSpace=wrap;rounded=0;" vertex="1" parent="1">
          <mxGeometry x="120" y="150" width="60" height="30" as="geometry" />
        </mxCell>
        <mxCell id="zPpbRW_l3qORdhPTsTCR-57" value="OTP" style="text;html=1;align=center;verticalAlign=middle;whiteSpace=wrap;rounded=0;" vertex="1" parent="1">
          <mxGeometry x="120" y="256.5" width="60" height="30" as="geometry" />
        </mxCell>
        <mxCell id="zPpbRW_l3qORdhPTsTCR-69" value="tocken" style="text;html=1;align=center;verticalAlign=middle;whiteSpace=wrap;rounded=0;" vertex="1" parent="1">
          <mxGeometry x="120" y="360" width="60" height="30" as="geometry" />
        </mxCell>
      </root>
    </mxGraphModel>
  </diagram>
</mxfile>
